<svg width="1200" height="800" xmlns="http://www.w3.org/2000/svg">
  <defs>
    <linearGradient id="heroBg" x1="0%" y1="0%" x2="100%" y2="100%">
      <stop offset="0%" style="stop-color:#0F172A;stop-opacity:1" />
      <stop offset="100%" style="stop-color:#1E293B;stop-opacity:1" />
    </linearGradient>
  </defs>
  
  <!-- Laptop Mockup -->
  <rect x="200" y="100" width="800" height="500" fill="#1E293B" rx="20"/>
  <rect x="220" y="120" width="760" height="460" fill="#0F172A" rx="10"/>
  
  <!-- Browser Chrome -->
  <rect x="220" y="120" width="760" height="40" fill="#1E293B"/>
  <circle cx="250" cy="140" r="6" fill="#EF4444"/>
  <circle cx="270" cy="140" r="6" fill="#F59E0B"/>
  <circle cx="290" cy="140" r="6" fill="#10B981"/>
  <rect x="320" y="132" width="400" height="16" rx="2" fill="#334155"/>
  
  <!-- Website Content -->
  <rect x="220" y="160" width="760" height="420" fill="#FFFFFF"/>
  
  <!-- Hero Section in Mockup -->
  <rect x="220" y="160" width="760" height="200" fill="#0F172A"/>
  <text x="600" y="250" font-family="Arial, sans-serif" font-size="32" font-weight="bold" fill="#FFFFFF" text-anchor="middle">Digital Excellence</text>
  <text x="600" y="290" font-family="Arial, sans-serif" font-size="18" fill="#94A3B8" text-anchor="middle">Premium web design and development</text>
  <rect x="500" y="310" width="200" height="40" fill="#D97706" rx="4"/>
  <text x="600" y="335" font-family="Arial, sans-serif" font-size="14" font-weight="600" fill="#FFFFFF" text-anchor="middle">Get Started</text>
  
  <!-- Content Cards -->
  <rect x="250" y="380" width="220" height="180" fill="#F8FAFC" rx="8"/>
  <rect x="270" y="400" width="180" height="100" fill="#E2E8F0" rx="4"/>
  <text x="360" y="520" font-family="Arial, sans-serif" font-size="14" font-weight="600" fill="#0F172A" text-anchor="middle">Web Design</text>
  
  <rect x="490" y="380" width="220" height="180" fill="#F8FAFC" rx="8"/>
  <rect x="510" y="400" width="180" height="100" fill="#E2E8F0" rx="4"/>
  <text x="600" y="520" font-family="Arial, sans-serif" font-size="14" font-weight="600" fill="#0F172A" text-anchor="middle">E-Commerce</text>
  
  <rect x="730" y="380" width="220" height="180" fill="#F8FAFC" rx="8"/>
  <rect x="750" y="400" width="180" height="100" fill="#E2E8F0" rx="4"/>
  <text x="840" y="520" font-family="Arial, sans-serif" font-size="14" font-weight="600" fill="#0F172A" text-anchor="middle">Social Media</text>
  
  <!-- Phone Mockup -->
  <rect x="1050" y="250" width="120" height="240" fill="#1E293B" rx="20"/>
  <rect x="1060" y="260" width="100" height="220" fill="#0F172A" rx="10"/>
  
  <!-- Phone Screen -->
  <rect x="1065" y="270" width="90" height="200" fill="#FFFFFF"/>
  <rect x="1065" y="270" width="90" height="30" fill="#0F172A"/>
  <text x="1110" y="290" font-family="Arial, sans-serif" font-size="10" fill="#FFFFFF" text-anchor="middle">9:41</text>
  
  <!-- Mobile Content -->
  <rect x="1070" y="310" width="80" height="60" fill="#F8FAFC" rx="4"/>
  <text x="1110" y="340" font-family="Arial, sans-serif" font-size="10" font-weight="600" fill="#0F172A" text-anchor="middle">Mobile</text>
  <text x="1110" y="355" font-family="Arial, sans-serif" font-size="8" fill="#64748B" text-anchor="middle">First Design</text>
  
  <rect x="1070" y="380" width="80" height="40" fill="#D97706" rx="4"/>
  <text x="1110" y="402" font-family="Arial, sans-serif" font-size="9" font-weight="600" fill="#FFFFFF" text-anchor="middle">Get Quote</text>
  
  <!-- Notch -->
  <rect x="1090" y="250" width="40" height="15" fill="#1E293B" rx="8"/>
</svg>
