<svg width="1200" height="675" xmlns="http://www.w3.org/2000/svg">
  <defs>
    <linearGradient id="bg4" x1="0%" y1="0%" x2="100%" y2="100%">
      <stop offset="0%" style="stop-color:#0F172A;stop-opacity:1" />
      <stop offset="100%" style="stop-color:#1E293B;stop-opacity:1" />
    </linearGradient>
  </defs>
  
  <!-- Browser Chrome -->
  <rect width="1200" height="40" fill="#1E293B"/>
  <circle cx="30" cy="20" r="6" fill="#EF4444"/>
  <circle cx="50" cy="20" r="6" fill="#F59E0B"/>
  <circle cx="70" cy="20" r="6" fill="#10B981"/>
  <rect x="100" y="12" width="400" height="16" rx="2" fill="#334155"/>
  
  <!-- Background -->
  <rect y="40" width="1200" height="635" fill="url(#bg4)"/>
  
  <!-- Hero Section -->
  <rect x="0" y="40" width="1200" height="400" fill="#1E293B"/>
  <text x="600" y="180" font-family="Arial, sans-serif" font-size="48" font-weight="bold" fill="#FFFFFF" text-anchor="middle">Enterprise Automation Solutions</text>
  <text x="600" y="220" font-family="Arial, sans-serif" font-size="20" fill="#94A3B8" text-anchor="middle">Streamline your operations with our advanced B2B platform</text>
  <rect x="450" y="260" width="150" height="50" fill="#D97706" rx="4"/>
  <text x="525" y="290" font-family="Arial, sans-serif" font-size="16" font-weight="600" fill="#FFFFFF" text-anchor="middle">Request Demo</text>
  <rect x="620" y="260" width="150" height="50" fill="transparent" stroke="#FFFFFF" stroke-width="2" rx="4"/>
  <text x="695" y="290" font-family="Arial, sans-serif" font-size="16" font-weight="600" fill="#FFFFFF" text-anchor="middle">Learn More</text>
  
  <!-- Navigation -->
  <rect x="50" y="60" width="1000" height="50" fill="transparent"/>
  <text x="70" y="85" font-family="Arial, sans-serif" font-size="16" fill="#FFFFFF">Solutions</text>
  <text x="180" y="85" font-family="Arial, sans-serif" font-size="16" fill="#FFFFFF">Case Studies</text>
  <text x="320" y="85" font-family="Arial, sans-serif" font-size="16" fill="#FFFFFF">Resources</text>
  <text x="450" y="85" font-family="Arial, sans-serif" font-size="16" fill="#FFFFFF">Pricing</text>
  <text x="550" y="85" font-family="Arial, sans-serif" font-size="16" fill="#FFFFFF">Company</text>
  
  <!-- Content Sections -->
  <rect x="50" y="470" width="350" height="180" fill="#FFFFFF" rx="8"/>
  <text x="70" y="500" font-family="Arial, sans-serif" font-size="18" font-weight="600" fill="#0F172A">Case Study</text>
  <text x="70" y="530" font-family="Arial, sans-serif" font-size="16" fill="#64748B">How TechCorp Increased Efficiency by 45%</text>
  <text x="70" y="560" font-family="Arial, sans-serif" font-size="14" fill="#94A3B8">Read the complete case study and learn how our platform transformed their operations...</text>
  <rect x="70" y="580" width="120" height="35" fill="#0F172A" rx="4"/>
  <text x="130" y="602" font-family="Arial, sans-serif" font-size="14" font-weight="600" fill="#FFFFFF" text-anchor="middle">Read More</text>
  
  <rect x="430" y="470" width="350" height="180" fill="#FFFFFF" rx="8"/>
  <text x="450" y="500" font-family="Arial, sans-serif" font-size="18" font-weight="600" fill="#0F172A">Resource Library</text>
  <text x="450" y="530" font-family="Arial, sans-serif" font-size="16" fill="#64748B">Download Whitepaper</text>
  <text x="450" y="560" font-family="Arial, sans-serif" font-size="14" fill="#94A3B8">"The Future of Enterprise Automation" - Comprehensive guide to digital transformation...</text>
  <rect x="450" y="580" width="120" height="35" fill="#0F172A" rx="4"/>
  <text x="510" y="602" font-family="Arial, sans-serif" font-size="14" font-weight="600" fill="#FFFFFF" text-anchor="middle">Download</text>
  
  <rect x="810" y="470" width="340" height="180" fill="#FFFFFF" rx="8"/>
  <text x="830" y="500" font-family="Arial, sans-serif" font-size="18" font-weight="600" fill="#0F172A">Lead Generation Form</text>
  <rect x="830" y="530" width="300" height="40" fill="#F1F5F9" rx="4"/>
  <text x="845" y="555" font-family="Arial, sans-serif" font-size="14" fill="#94A3B8">Company Email</text>
  <rect x="830" y="580" width="300" height="40" fill="#F1F5F9" rx="4"/>
  <text x="845" y="605" font-family="Arial, sans-serif" font-size="14" fill="#94A3B8">Phone Number</text>
  <rect x="830" y="600" width="300" height="40" fill="#D97706" rx="4"/>
  <text x="980" y="625" font-family="Arial, sans-serif" font-size="14" font-weight="600" fill="#FFFFFF" text-anchor="middle">Request Demo</text>
</svg>
