<svg width="1200" height="675" xmlns="http://www.w3.org/2000/svg">
  <defs>
    <linearGradient id="bg3" x1="0%" y1="0%" x2="100%" y2="100%">
      <stop offset="0%" style="stop-color:#FFFFFF;stop-opacity:1" />
      <stop offset="100%" style="stop-color:#F8FAFC;stop-opacity:1" />
    </linearGradient>
  </defs>
  
  <!-- Browser Chrome -->
  <rect width="1200" height="40" fill="#1E293B"/>
  <circle cx="30" cy="20" r="6" fill="#EF4444"/>
  <circle cx="50" cy="20" r="6" fill="#F59E0B"/>
  <circle cx="70" cy="20" r="6" fill="#10B981"/>
  <rect x="100" y="12" width="400" height="16" rx="2" fill="#334155"/>
  
  <!-- Background -->
  <rect y="40" width="1200" height="635" fill="url(#bg3)"/>
  
  <!-- Header -->
  <rect x="0" y="40" width="1200" height="70" fill="#FFFFFF" stroke="#E2E8F0"/>
  <text x="50" y="80" font-family="Arial, sans-serif" font-size="24" font-weight="bold" fill="#0F172A">ArtisanCraft</text>
  <rect x="800" y="55" width="200" height="40" fill="#F1F5F9" rx="4"/>
  <text x="900" y="80" font-family="Arial, sans-serif" font-size="14" fill="#64748B" text-anchor="middle">Search products...</text>
  <circle cx="1050" cy="75" r="15" fill="#0F172A"/>
  <text x="1050" y="81" font-family="Arial, sans-serif" font-size="16" fill="#FFFFFF" text-anchor="middle">🛒</text>
  <circle cx="1080" cy="65" r="8" fill="#EF4444"/>
  <text x="1080" y="70" font-family="Arial, sans-serif" font-size="10" font-weight="bold" fill="#FFFFFF" text-anchor="middle">3</text>
  
  <!-- Hero Banner -->
  <rect x="50" y="130" width="1100" height="200" fill="#0F172A" rx="8"/>
  <text x="600" y="200" font-family="Arial, sans-serif" font-size="36" font-weight="bold" fill="#FFFFFF" text-anchor="middle">Handcrafted Home Decor</text>
  <text x="600" y="240" font-family="Arial, sans-serif" font-size="18" fill="#94A3B8" text-anchor="middle">Discover Unique Artisan-Made Pieces</text>
  <rect x="500" y="260" width="200" height="50" fill="#D97706" rx="4"/>
  <text x="600" y="290" font-family="Arial, sans-serif" font-size="16" font-weight="600" fill="#FFFFFF" text-anchor="middle">Shop Now</text>
  
  <!-- Product Grid -->
  <rect x="50" y="360" width="250" height="280" fill="#FFFFFF" rx="8" stroke="#E2E8F0"/>
  <rect x="70" y="380" width="210" height="180" fill="#F1F5F9" rx="4"/>
  <text x="70" y="590" font-family="Arial, sans-serif" font-size="16" font-weight="600" fill="#0F172A">Handwoven Basket Set</text>
  <text x="70" y="615" font-family="Arial, sans-serif" font-size="18" font-weight="bold" fill="#D97706">₹2,499</text>
  <text x="200" y="615" font-family="Arial, sans-serif" font-size="14" fill="#94A3B8" text-decoration="line-through">₹3,999</text>
  
  <rect x="320" y="360" width="250" height="280" fill="#FFFFFF" rx="8" stroke="#E2E8F0"/>
  <rect x="340" y="380" width="210" height="180" fill="#F1F5F9" rx="4"/>
  <text x="340" y="590" font-family="Arial, sans-serif" font-size="16" font-weight="600" fill="#0F172A">Ceramic Vase Collection</text>
  <text x="340" y="615" font-family="Arial, sans-serif" font-size="18" font-weight="bold" fill="#D97706">₹3,999</text>
  
  <rect x="590" y="360" width="250" height="280" fill="#FFFFFF" rx="8" stroke="#E2E8F0"/>
  <rect x="610" y="380" width="210" height="180" fill="#F1F5F9" rx="4"/>
  <text x="610" y="590" font-family="Arial, sans-serif" font-size="16" font-weight="600" fill="#0F172A">Macrame Wall Hanging</text>
  <text x="610" y="615" font-family="Arial, sans-serif" font-size="18" font-weight="bold" fill="#D97706">₹1,799</text>
  
  <rect x="860" y="360" width="250" height="280" fill="#FFFFFF" rx="8" stroke="#E2E8F0"/>
  <rect x="880" y="380" width="210" height="180" fill="#F1F5F9" rx="4"/>
  <text x="880" y="590" font-family="Arial, sans-serif" font-size="16" font-weight="600" fill="#0F172A">Wooden Serving Tray</text>
  <text x="880" y="615" font-family="Arial, sans-serif" font-size="18" font-weight="bold" fill="#D97706">₹2,299</text>
  
  <!-- Badge -->
  <circle cx="280" cy="380" r="20" fill="#EF4444"/>
  <text x="280" y="388" font-family="Arial, sans-serif" font-size="12" font-weight="bold" fill="#FFFFFF" text-anchor="middle">-37%</text>
  
  <!-- Category Filters -->
  <rect x="50" y="300" width="1100" height="40" fill="transparent"/>
  <rect x="50" y="310" width="120" height="30" fill="#0F172A" rx="15"/>
  <text x="110" y="330" font-family="Arial, sans-serif" font-size="14" font-weight="600" fill="#FFFFFF" text-anchor="middle">All</text>
  <rect x="190" y="310" width="120" height="30" fill="#F1F5F9" rx="15"/>
  <text x="250" y="330" font-family="Arial, sans-serif" font-size="14" fill="#0F172A" text-anchor="middle">Home Decor</text>
  <rect x="330" y="310" width="120" height="30" fill="#F1F5F9" rx="15"/>
  <text x="390" y="330" font-family="Arial, sans-serif" font-size="14" fill="#0F172A" text-anchor="middle">Kitchen</text>
  <rect x="470" y="310" width="120" height="30" fill="#F1F5F9" rx="15"/>
  <text x="530" y="330" font-family="Arial, sans-serif" font-size="14" fill="#0F172A" text-anchor="middle">Accessories</text>
</svg>
