<svg width="1200" height="675" xmlns="http://www.w3.org/2000/svg">
  <defs>
    <linearGradient id="bg2" x1="0%" y1="0%" x2="100%" y2="100%">
      <stop offset="0%" style="stop-color:#0EA5E9;stop-opacity:1" />
      <stop offset="100%" style="stop-color:#0284C7;stop-opacity:1" />
    </linearGradient>
  </defs>
  
  <!-- Browser Chrome -->
  <rect width="1200" height="40" fill="#1E293B"/>
  <circle cx="30" cy="20" r="6" fill="#EF4444"/>
  <circle cx="50" cy="20" r="6" fill="#F59E0B"/>
  <circle cx="70" cy="20" r="6" fill="#10B981"/>
  <rect x="100" y="12" width="400" height="16" rx="2" fill="#334155"/>
  
  <!-- Background -->
  <rect y="40" width="1200" height="635" fill="url(#bg2)"/>
  
  <!-- Header -->
  <rect x="0" y="40" width="1200" height="80" fill="#0369A1" opacity="0.8"/>
  <text x="50" y="85" font-family="Arial, sans-serif" font-size="24" font-weight="bold" fill="#FFFFFF">HealthCare Portal</text>
  <circle cx="1100" cy="80" r="20" fill="#FFFFFF" opacity="0.3"/>
  <text x="1100" y="87" font-family="Arial, sans-serif" font-size="18" fill="#0369A1" text-anchor="middle" font-weight="bold">JD</text>
  
  <!-- Dashboard Cards -->
  <rect x="50" y="150" width="350" height="200" fill="#FFFFFF" rx="8"/>
  <text x="70" y="180" font-family="Arial, sans-serif" font-size="18" font-weight="600" fill="#0F172A">Upcoming Appointments</text>
  <rect x="70" y="200" width="310" height="50" fill="#F0F9FF" rx="4"/>
  <text x="85" y="230" font-family="Arial, sans-serif" font-size="16" fill="#0F172A">Dr. Priya Sharma</text>
  <text x="85" y="250" font-family="Arial, sans-serif" font-size="14" fill="#64748B">Today, 2:00 PM - General Checkup</text>
  <rect x="70" y="260" width="310" height="50" fill="#F0F9FF" rx="4"/>
  <text x="85" y="290" font-family="Arial, sans-serif" font-size="16" fill="#0F172A">Dr. Rajesh Kumar</text>
  <text x="85" y="310" font-family="Arial, sans-serif" font-size="14" fill="#64748B">Tomorrow, 10:00 AM - Consultation</text>
  
  <rect x="430" y="150" width="350" height="200" fill="#FFFFFF" rx="8"/>
  <text x="450" y="180" font-family="Arial, sans-serif" font-size="18" font-weight="600" fill="#0F172A">Quick Actions</text>
  <rect x="450" y="200" width="150" height="60" fill="#0EA5E9" rx="4"/>
  <text x="525" y="235" font-family="Arial, sans-serif" font-size="14" font-weight="600" fill="#FFFFFF" text-anchor="middle">Book Appointment</text>
  <rect x="620" y="200" width="150" height="60" fill="#10B981" rx="4"/>
  <text x="695" y="235" font-family="Arial, sans-serif" font-size="14" font-weight="600" fill="#FFFFFF" text-anchor="middle">View Records</text>
  <rect x="450" y="280" width="150" height="60" fill="#F59E0B" rx="4"/>
  <text x="525" y="315" font-family="Arial, sans-serif" font-size="14" font-weight="600" fill="#FFFFFF" text-anchor="middle">Prescriptions</text>
  <rect x="620" y="280" width="150" height="60" fill="#8B5CF6" rx="4"/>
  <text x="695" y="315" font-family="Arial, sans-serif" font-size="14" font-weight="600" fill="#FFFFFF" text-anchor="middle">Telemedicine</text>
  
  <rect x="810" y="150" width="340" height="200" fill="#FFFFFF" rx="8"/>
  <text x="830" y="180" font-family="Arial, sans-serif" font-size="18" font-weight="600" fill="#0F172A">Medical Records</text>
  <rect x="830" y="200" width="300" height="30" fill="#F0F9FF" rx="4"/>
  <text x="845" y="220" font-family="Arial, sans-serif" font-size="14" fill="#0F172A">Last Visit: Dec 15, 2024</text>
  <rect x="830" y="240" width="300" height="30" fill="#F0F9FF" rx="4"/>
  <text x="845" y="260" font-family="Arial, sans-serif" font-size="14" fill="#0F172A">Lab Results: Available</text>
  <rect x="830" y="280" width="300" height="30" fill="#F0F9FF" rx="4"/>
  <text x="845" y="300" font-family="Arial, sans-serif" font-size="14" fill="#0F172A">Prescriptions: 3 Active</text>
  
  <!-- Calendar Section -->
  <rect x="50" y="380" width="500" height="280" fill="#FFFFFF" rx="8"/>
  <text x="70" y="410" font-family="Arial, sans-serif" font-size="18" font-weight="600" fill="#0F172A">Appointment Calendar</text>
  <rect x="70" y="430" width="460" height="220" fill="#F8FAFC" rx="4"/>
  <!-- Calendar Grid -->
  <rect x="80" y="450" width="60" height="40" fill="#0EA5E9" rx="2"/>
  <text x="110" y="475" font-family="Arial, sans-serif" font-size="14" font-weight="600" fill="#FFFFFF" text-anchor="middle">Mon</text>
  <rect x="150" y="450" width="60" height="40" fill="#E0F2FE" rx="2"/>
  <text x="180" y="475" font-family="Arial, sans-serif" font-size="14" fill="#0F172A" text-anchor="middle">Tue</text>
  <rect x="220" y="450" width="60" height="40" fill="#E0F2FE" rx="2"/>
  <text x="250" y="475" font-family="Arial, sans-serif" font-size="14" fill="#0F172A" text-anchor="middle">Wed</text>
  <rect x="290" y="450" width="60" height="40" fill="#E0F2FE" rx="2"/>
  <text x="320" y="475" font-family="Arial, sans-serif" font-size="14" fill="#0F172A" text-anchor="middle">Thu</text>
  <rect x="360" y="450" width="60" height="40" fill="#E0F2FE" rx="2"/>
  <text x="390" y="475" font-family="Arial, sans-serif" font-size="14" fill="#0F172A" text-anchor="middle">Fri</text>
  <rect x="430" y="450" width="60" height="40" fill="#E0F2FE" rx="2"/>
  <text x="460" y="475" font-family="Arial, sans-serif" font-size="14" fill="#0F172A" text-anchor="middle">Sat</text>
  
  <!-- Notification Badge -->
  <circle cx="1100" cy="200" r="12" fill="#EF4444"/>
  <text x="1100" y="207" font-family="Arial, sans-serif" font-size="12" font-weight="bold" fill="#FFFFFF" text-anchor="middle">3</text>
</svg>
