<svg width="1200" height="675" xmlns="http://www.w3.org/2000/svg">
  <defs>
    <linearGradient id="bg6" x1="0%" y1="0%" x2="100%" y2="100%">
      <stop offset="0%" style="stop-color:#1E293B;stop-opacity:1" />
      <stop offset="100%" style="stop-color:#334155;stop-opacity:1" />
    </linearGradient>
  </defs>
  
  <!-- Browser Chrome -->
  <rect width="1200" height="40" fill="#1E293B"/>
  <circle cx="30" cy="20" r="6" fill="#EF4444"/>
  <circle cx="50" cy="20" r="6" fill="#F59E0B"/>
  <circle cx="70" cy="20" r="6" fill="#10B981"/>
  <rect x="100" y="12" width="400" height="16" rx="2" fill="#334155"/>
  
  <!-- Background -->
  <rect y="40" width="1200" height="635" fill="url(#bg6)"/>
  
  <!-- Header -->
  <rect x="0" y="40" width="1200" height="80" fill="#0F172A"/>
  <text x="50" y="85" font-family="Arial, sans-serif" font-size="28" font-weight="bold" fill="#FFFFFF">Precision Manufacturing</text>
  <text x="600" y="85" font-family="Arial, sans-serif" font-size="16" fill="#94A3B8">Solutions</text>
  <text x="720" y="85" font-family="Arial, sans-serif" font-size="16" fill="#94A3B8">Case Studies</text>
  <text x="850" y="85" font-family="Arial, sans-serif" font-size="16" fill="#94A3B8">Resources</text>
  <text x="970" y="85" font-family="Arial, sans-serif" font-size="16" fill="#94A3B8">Contact</text>
  
  <!-- Hero Section -->
  <rect x="50" y="150" width="1100" height="300" fill="#1E293B" rx="8"/>
  <text x="600" y="250" font-family="Arial, sans-serif" font-size="42" font-weight="bold" fill="#FFFFFF" text-anchor="middle">Precision Engineering</text>
  <text x="600" y="290" font-family="Arial, sans-serif" font-size="42" font-weight="bold" fill="#FFFFFF" text-anchor="middle">Innovation</text>
  <text x="600" y="330" font-family="Arial, sans-serif" font-size="20" fill="#94A3B8" text-anchor="middle">25 Years of Excellence in Manufacturing Solutions</text>
  <rect x="500" y="370" width="200" height="50" fill="#D97706" rx="4"/>
  <text x="600" y="400" font-family="Arial, sans-serif" font-size="16" font-weight="600" fill="#FFFFFF" text-anchor="middle">Explore Solutions</text>
  
  <!-- Product Showcase -->
  <rect x="50" y="480" width="350" height="180" fill="#FFFFFF" rx="8"/>
  <rect x="70" y="500" width="310" height="120" fill="#F1F5F9" rx="4"/>
  <text x="70" y="650" font-family="Arial, sans-serif" font-size="18" font-weight="600" fill="#0F172A">CNC Machining</text>
  <text x="70" y="675" font-family="Arial, sans-serif" font-size="14" fill="#64748B">High-precision components</text>
  
  <rect x="430" y="480" width="350" height="180" fill="#FFFFFF" rx="8"/>
  <rect x="450" y="500" width="310" height="120" fill="#F1F5F9" rx="4"/>
  <text x="450" y="650" font-family="Arial, sans-serif" font-size="18" font-weight="600" fill="#0F172A">Assembly Solutions</text>
  <text x="450" y="675" font-family="Arial, sans-serif" font-size="14" fill="#64748B">Custom manufacturing</text>
  
  <rect x="810" y="480" width="340" height="180" fill="#FFFFFF" rx="8"/>
  <rect x="830" y="500" width="300" height="120" fill="#F1F5F9" rx="4"/>
  <text x="830" y="650" font-family="Arial, sans-serif" font-size="18" font-weight="600" fill="#0F172A">Quality Assurance</text>
  <text x="830" y="675" font-family="Arial, sans-serif" font-size="14" fill="#64748B">ISO certified processes</text>
  
  <!-- Stats -->
  <rect x="50" y="300" width="200" height="150" fill="#0F172A" opacity="0.5" rx="8"/>
  <text x="150" y="350" font-family="Arial, sans-serif" font-size="36" font-weight="bold" fill="#D97706" text-anchor="middle">25+</text>
  <text x="150" y="380" font-family="Arial, sans-serif" font-size="16" fill="#94A3B8" text-anchor="middle">Years Experience</text>
  
  <rect x="280" y="300" width="200" height="150" fill="#0F172A" opacity="0.5" rx="8"/>
  <text x="380" y="350" font-family="Arial, sans-serif" font-size="36" font-weight="bold" fill="#D97706" text-anchor="middle">500+</text>
  <text x="380" y="380" font-family="Arial, sans-serif" font-size="16" fill="#94A3B8" text-anchor="middle">Projects Completed</text>
  
  <rect x="510" y="300" width="200" height="150" fill="#0F172A" opacity="0.5" rx="8"/>
  <text x="610" y="350" font-family="Arial, sans-serif" font-size="36" font-weight="bold" fill="#D97706" text-anchor="middle">ISO</text>
  <text x="610" y="380" font-family="Arial, sans-serif" font-size="16" fill="#94A3B8" text-anchor="middle">Certified</text>
</svg>
